<svg version="1.1" id="Capa_1" xmlns="http://www.w3.org/2000/svg" xmlns:xlink="http://www.w3.org/1999/xlink" x="0px" y="0px"
	 viewBox="0 0 512 512" style="enable-background:new 0 0 512 512; fill: #c733a6;" xml:space="preserve">
<g>
	<g>
		<path d="M510.266,219.696l-80.29-117.925c-16.791-24.66-41.714-43.157-70.182-52.083c-28.469-8.927-59.491-7.973-87.353,2.685
			L27.67,145.991c-21.903,8.377-32.966,32.268-25.185,54.39c6.874,19.543,28.426,30.002,48.027,23.315l100.256-34.191
			c5.228-1.783,8.019-7.464,6.236-12.692c-1.783-5.228-7.465-8.02-12.691-6.236L44.059,204.769
			c-9.267,3.163-19.457-1.783-22.707-11.023c-4.16-11.826,1.754-24.597,13.463-29.076l244.77-93.619
			c49.181-18.811,104.225-1.551,133.862,41.974l49.314,72.43l-88.5-62.331c-18.548-13.064-42.443-16.493-63.917-9.168l-86.855,29.62
			c-5.228,1.783-8.019,7.464-6.236,12.691c1.782,5.228,7.465,8.019,12.691,6.236l86.855-29.62
			c15.436-5.265,32.611-2.801,45.947,6.59l133.499,94.023c1.737,1.224,3.751,1.824,5.755,1.824c2.552,0,5.088-0.974,7.017-2.873
			C512.46,229.059,512.987,223.69,510.266,219.696z"/>
	</g>
</g>
<g>
	<g>
		<path d="M195.847,158.907c-1.859-1.86-4.439-2.93-7.068-2.93s-5.21,1.07-7.069,2.93c-1.86,1.86-2.93,4.44-2.93,7.069
			c0,2.63,1.069,5.21,2.93,7.069c1.861,1.86,4.44,2.93,7.069,2.93s5.209-1.07,7.068-2.93c1.86-1.86,2.931-4.44,2.931-7.069
			C198.777,163.347,197.708,160.767,195.847,158.907z"/>
	</g>
</g>
<g>
	<g>
		<path d="M218.278,337.888c-10.575-2.35-21.431-0.442-30.569,5.374c-9.138,5.815-15.466,14.842-17.814,25.416
			c-2.351,10.574-0.441,21.43,5.374,30.568c5.815,9.139,14.841,15.467,25.415,17.816c2.953,0.656,5.925,0.98,8.878,0.98
			c7.623,0,15.104-2.163,21.691-6.353c9.139-5.815,15.467-14.842,17.815-25.416C253.919,364.444,240.106,342.739,218.278,337.888z
			 M229.545,381.934c-1.191,5.359-4.398,9.935-9.03,12.882c-4.633,2.947-10.136,3.917-15.494,2.724
			c-5.36-1.191-9.935-4.398-12.883-9.03c-2.947-4.632-3.914-10.134-2.723-15.494c1.191-5.359,4.398-9.935,9.03-12.882
			c3.339-2.125,7.129-3.221,10.994-3.221c1.496,0,3.004,0.164,4.499,0.497C225.002,359.869,232.004,370.871,229.545,381.934z"/>
	</g>
</g>
<g>
	<g>
		<path d="M406.005,220.453c-2.877-2.395-6.851-2.983-10.299-1.523c-19.902,8.431-36.343,14.415-59.856,18.431
			c0.712-6.574,0.665-13.333-0.234-20.172c-0.721-5.475-5.747-9.331-11.217-8.611c-5.476,0.719-9.33,5.742-8.611,11.216
			c0.916,6.968,0.667,13.823-0.567,20.382c-7.525,0.803-15.768,1.473-24.92,2.02c1.863-9.128,2.228-18.601,0.978-28.116
			c-0.72-5.476-5.741-9.329-11.217-8.611c-5.476,0.719-9.331,5.742-8.611,11.216c1.187,9.027,0.473,18.004-1.982,26.489
			c-5.644,0.202-11.594,0.37-17.874,0.507c2.709-13.13,2.267-26.81-1.478-40.094c-1.499-5.315-7.02-8.409-12.337-6.911
			c-5.315,1.499-8.409,7.021-6.911,12.337c3.279,11.63,3.256,23.657,0.08,34.991c-11.176,0.114-23.269,0.152-36.438,0.116
			c-0.161,0-0.317,0-0.479,0c-58.286,0-105.138,28.762-135.509,83.195c-22.459,40.257-27.905,80.029-28.15,81.89
			c-0.566,4.244,1.657,8.533,5.753,10.407c5.017,2.293,10.948,0.087,13.251-4.929c0.139-0.304,14.251-30.682,42.198-58.696
			c16.179-16.217,33.424-28.313,51.635-36.264c-9.366,10.71-16.259,23.84-19.556,38.68c-5.096,22.925-0.957,46.462,11.65,66.274
			c5.694,8.946,12.816,16.636,21.016,22.863c-16.588-1.226-33.924-3.829-52.007-7.847c-5.388-1.197-10.732,2.201-11.93,7.591
			c-1.198,5.391,2.201,10.732,7.592,11.93c27.504,6.112,53.489,9.164,77.888,9.164c47.797,0,89.494-11.711,124.542-35.063
			c39.933-26.606,63.13-63.552,75.557-89.86c12.132-25.68,16.614-46.224,17.495-50.672c0.041-0.15,0.09-0.296,0.124-0.45
			l13.784-62.027C410.179,226.65,408.881,222.848,406.005,220.453z M274.476,276.789c3.447-4.489,6.403-9.246,8.855-14.21
			c8.679-0.436,16.669-0.973,24.095-1.622c-9.781,16.671-26.856,28.84-47.459,31.546c-0.603,0.079-1.182,0.219-1.742,0.397
			C264.267,288.339,269.743,282.954,274.476,276.789z M242.492,268.06c0.784-1.399,1.515-2.818,2.214-4.247
			c5.102-0.089,10.004-0.198,14.73-0.327c-0.275,0.375-0.538,0.756-0.822,1.126c-7.747,10.09-18.055,17.507-29.797,21.631
			C234.1,280.884,238.715,274.801,242.492,268.06z M76.949,342.334c-2.773,2.796-5.414,5.605-7.929,8.403
			c2.098-4.519,4.413-9.101,6.967-13.681c27.005-48.402,66.715-72.941,118.035-72.941c0.145,0,0.289,0,0.434,0
			c9.489,0.025,18.441,0.012,26.927-0.039c-8.413,11.916-20.512,20.57-34.707,24.718C146.578,291.73,109.129,309.89,76.949,342.334z
			 M275.785,392.209c-8.125,36.56-44.476,59.688-81.04,51.57c-17.71-3.937-32.828-14.534-42.567-29.839
			c-9.74-15.306-12.938-33.489-9.001-51.2c7.026-31.619,35.166-53.194,66.294-53.194c4.864,0,9.805,0.528,14.745,1.625
			C260.775,319.295,283.909,355.649,275.785,392.209z M291.318,416.672c-1.566,1.043-3.148,2.058-4.745,3.05
			c3.901-7.109,6.888-14.868,8.733-23.173c6.904-31.07-3.632-62.026-25.077-82.601c49.125,1.744,82.494-3.938,101.269-8.741
			C363.181,331.641,341.352,383.334,291.318,416.672z M377.247,282.658c-9.257,3.095-32.991,9.626-72.045,11.212
			c11.457-9.401,20.326-21.689,25.618-35.581c21.291-3.088,37.922-7.572,54.922-13.857L377.247,282.658z"/>
	</g>
</g>
<g>
	<g>
		<path d="M73.606,433.884c-1.859-1.861-4.439-2.93-7.068-2.93c-2.63,0-5.21,1.07-7.069,2.93s-2.93,4.44-2.93,7.069
			s1.069,5.21,2.93,7.069s4.44,2.93,7.069,2.93c2.63,0,5.21-1.07,7.068-2.93c1.86-1.86,2.931-4.44,2.931-7.069
			S75.467,435.744,73.606,433.884z"/>
	</g>
</g>
</svg>
